<?xml version="1.0" encoding="utf-8"?>
<!-- Generator: Adobe Illustrator 14.0.0, SVG Export Plug-In . SVG Version: 6.00 Build 43363)  -->
<!DOCTYPE svg PUBLIC "-//W3C//DTD SVG 1.1//EN" "http://www.w3.org/Graphics/SVG/1.1/DTD/svg11.dtd">
<svg version="1.1" id="Layer_1" xmlns="http://www.w3.org/2000/svg" xmlns:xlink="http://www.w3.org/1999/xlink" x="0px" y="0px"
	 width="762px" height="141px" viewBox="0 0 762 141" enable-background="new 0 0 762 141" xml:space="preserve">
<polygon fill="#F79520" points="158.681,124.729 158.685,124.729 158.682,124.731 "/>
<path fill="#F79520" d="M210.563,48.169l12.367,18.537l12.376-18.544h-0.017c1.833-2.52,2.924-5.61,2.924-8.962
	c0-8.439-6.841-15.283-15.284-15.283c-8.437,0-15.283,6.844-15.283,15.283c0,3.357,1.096,6.449,2.93,8.969H210.563z M222.93,32.394
	c3.76,0,6.805,3.047,6.805,6.807c0,3.755-3.045,6.8-6.805,6.8c-3.755,0-6.799-3.045-6.799-6.8
	C216.131,35.44,219.175,32.394,222.93,32.394 M176.864,76.312l1.707,1.73l3.57-3.518l-1.707-1.736L176.864,76.312z M188.798,68.844
	l-4.749,1.615l0.783,2.303l4.747-1.615L188.798,68.844z M264.12,56.882l-17.217-10.956l-7.885,2.877
	c-0.287,0.479-0.548,0.972-0.879,1.431c0.028-0.037,0.072-0.075,0.097-0.114l-2.773,4.156l12.554-4.232l10.978,40.683l-36.16,15.292
	l-0.028-4.345L222.896,73l-2.893-4.339l-12.369-18.538c0.027,0.041,0.069,0.08,0.096,0.121c-0.266-0.369-0.468-0.765-0.704-1.146
	l-9.03-3.172L180.78,56.882l-28.955,56.344l33.419-17.813l37.622,15.467l37.519-15.557l32.692,17.903L264.12,56.882z
	 M161.179,103.757l22.188-44.133l13.179-8.285l-10.379,38.745L161.179,103.757z M198.261,73.622l-4.365-2.468l1.196-2.115
	l4.366,2.469L198.261,73.622z M204.784,80.313l-3.29-3.781l1.834-1.593l3.295,3.777L204.784,80.313z M210.857,88.271l-3.095-3.947
	l1.917-1.497l3.094,3.942L210.857,88.271z M219.615,94.439l-4.525-2.164l1.049-2.192l4.526,2.158L219.615,94.439z M224.815,95.883
	l4.993,0.472l0.231-2.428l-4.992-0.467L224.815,95.883z M234.211,96.364l4.83-1.343l-0.653-2.348l-4.828,1.348L234.211,96.364z
	 M243.687,92.394l2.747-4.196l-2.038-1.334l-2.743,4.196L243.687,92.394z M247.363,83.073l-0.978-4.921l-2.391,0.474l0.981,4.918
	L247.363,83.073z M238.319,72.816l4.154,2.805l1.368-2.016l-4.156-2.811L238.319,72.816z M234.238,69.6l-4.962,0.751l0.365,2.411
	l4.958-0.753L234.238,69.6z"/>
<path fill="#F79520" d="M36.611,69.164v-5.3l-8.769,2.651L36.611,69.164z M109.71,63.305c-1.745-25.502-22.928-45.661-48.87-45.661
	c-25.941,0-47.124,20.159-48.869,45.661h-0.054v16.262c1.175,26.042,22.593,46.812,48.923,46.812
	c26.143,0,47.422-20.482,48.873-46.264v-16.81H109.71z M60.84,110.335c-24.071,0-43.653-19.581-43.653-43.649
	c0-24.074,19.582-43.658,43.653-43.658c24.072,0,43.655,19.584,43.655,43.658C104.496,90.754,84.913,110.335,60.84,110.335
	 M60.84,27.686c-21.536,0.003-38.994,17.458-38.996,39.001c0.002,21.53,17.46,38.991,38.996,38.995
	c21.54-0.004,38.997-17.465,38.997-38.995C99.837,45.144,82.38,27.688,60.84,27.686 M87.643,91.083l-6.13-6.125l-2.471,2.469
	l6.125,6.126c-6.438,5.832-14.949,9.418-24.326,9.434c-9.349-0.016-17.838-3.584-24.268-9.386l6.239-6.238l-2.47-2.47l-6.249,6.245
	c-5.902-6.451-9.536-15.011-9.553-24.451c0.017-9.38,3.603-17.89,9.435-24.328l6.05,6.052l2.473-2.473l-6.056-6.053
	c6.445-5.874,14.987-9.489,24.399-9.506c9.441,0.019,18.003,3.653,24.455,9.554l-6.107,6.111l2.468,2.471l6.103-6.102
	c5.803,6.432,9.369,14.922,9.387,24.274C97.128,76.098,93.515,84.639,87.643,91.083 M51.835,66.687l9.005,31.403l9.006-31.403
	l-9.007-31.408L51.835,66.687z M66.179,70.284l-5.47,19.635l-5.276-19.762c1.148,1.782,3.137,2.97,5.407,2.97
	C63.06,73.127,65.021,71.997,66.179,70.284 M63.842,66.687c0,1.656-1.346,3.006-3.004,3.006c-1.655,0-3.005-1.35-3.005-3.006
	c0-1.655,1.35-3.004,3.005-3.004C62.497,63.683,63.842,65.031,63.842,66.687 M84.021,69.481l9.819-2.965l-9.819-2.97V69.481z"/>
<path fill="#F79520" d="M570.698,87.678c-2.61-2.615-3.915-6.526-2.61-9.137c1.095-1.829,2.591-3.556,3.962-5.324h0.011
	c0.639-0.743,1.438-1.747,1.994-2.578c2.606-3.915,0-9.139-5.221-13.055c2.609,2.611,3.916,6.523,2.609,9.14
	c-1.291,2.146-3.722,4.813-5.262,6.913h0.014c-0.246,0.319-0.491,0.644-0.718,0.984C562.868,78.541,565.478,83.759,570.698,87.678
	 M500.927,96.224l5.938,4.421v-5.294l-1.691-1.258V70.241l1.691-1.194v-5.196l-5.938,4.192V96.224z M527.387,57.836
	c-5.417,0-10.257-1.27-13.445-3.029l-3.555,3.557v47.659c0.702,0.865,2.086,1.832,4.182,2.604c3.201,1.217,7.769,2.003,12.817,1.999
	c5.049,0.004,9.61-0.782,12.821-1.999c2.097-0.773,3.479-1.74,4.181-2.604v-47.07l-3.942-3.945
	C537.257,56.66,532.597,57.836,527.387,57.836 M540.338,105.473l-2.348,0.781V61.479l2.348-0.78V105.473z M527.386,112.977
	c-5.29-0.004-10.084-0.804-13.653-2.152c-1.254-0.489-2.39-1.042-3.346-1.685v10.868h0.002c0,3.558,7.611,6.438,16.998,6.438
	s16.998-2.881,16.998-6.438h0.003v-10.87c-0.957,0.641-2.095,1.197-3.351,1.687C537.468,112.173,532.679,112.973,527.386,112.977
	 M540.338,121.686l-2.348,0.784v-7.852l2.348-0.781V121.686z M568.942,90.133c-9.39,0-16.997,2.881-16.997,6.438v0.003h-0.007
	l3.095,23.569h0.023c0.112,3.493,4.616,6.304,13.886,6.304c9.266,0,13.796-2.811,13.909-6.304l3.088-23.569V96.57
	C585.939,93.014,578.328,90.133,568.942,90.133 M579.396,120.143l-0.184,1.324l-2.435,0.88l1.035-7.539l1.607-11.682l2.434-0.881
	l-2.46,17.897H579.396z M568.942,100.663c-9.614,0-14.651-3.039-14.651-4.093c0-1.052,5.037-4.089,14.651-4.089
	c9.613,0,14.65,3.037,14.65,4.089C583.593,97.624,578.556,100.663,568.942,100.663 M526.312,22.312h0.006
	c1.021,1.312,2.133,2.598,2.946,3.956c0.97,1.939,0,4.848-1.94,6.788c3.879-2.909,5.82-6.788,3.879-9.7
	c-0.166-0.252-0.351-0.493-0.53-0.732h0.009c-1.145-1.56-2.95-3.537-3.912-5.137c-0.969-1.941,0-4.853,1.943-6.79
	c-3.881,2.911-5.821,6.79-3.881,9.7C525.244,21.018,525.84,21.762,526.312,22.312 M527.387,53.464c6.436,0,11.757-1.88,12.284-4.27
	V40.18h-0.034c0.005-0.042,0.034-0.082,0.034-0.125c0-2.575-5.5-4.657-12.284-4.657c-6.782,0-12.283,2.082-12.283,4.657v9.14
	C515.632,51.584,520.953,53.464,527.387,53.464 M527.387,37.745c5.746,0,9.082,1.504,9.839,2.308
	c-0.759,0.803-4.099,2.305-9.839,2.305s-9.078-1.502-9.837-2.305C518.306,39.249,521.642,37.745,527.387,37.745"/>
<path fill="#F79520" d="M743.769,63.528v-1.395c0-5.34-4.328-9.539-9.663-9.556v-0.002H684.11c-4.614,0-8.354,3.621-8.604,8.176
	l-0.048,0.014v33.32h-0.009c0,4.778-2.151,8.65-6.932,8.65h29.671v3.697h-2.477v7.854h2.477v3.865l2.146,2.162l2.197-2.162v-3.865
	h2.476v-7.854h-2.476v-3.697h17.435c1.653-0.098,3.161-0.681,4.421-1.589v0.041c0.066-0.048,0.119-0.114,0.183-0.165
	c0.378-0.285,0.734-0.598,1.057-0.943c0.142-0.149,0.262-0.317,0.393-0.479c0.209-0.26,0.403-0.524,0.582-0.811
	c0.114-0.18,0.228-0.358,0.326-0.549c0.231-0.441,0.438-0.896,0.595-1.378v-0.009c0.198-0.624,0.336-1.276,0.387-1.953v-1.528
	l12.339-3.473v26.832c0,3.403-2.768,6.171-6.17,6.171s-6.169-2.768-6.169-6.171v-15.034c-0.984,1.116-2.172,2.033-3.521,2.693
	v12.341c0,2.367,0.882,4.51,2.292,6.191h-36.763c-5.99,0-10.86-4.869-10.86-10.855v-6.388h-3.521v6.388
	c0,7.939,6.438,14.378,14.382,14.378h44.408V126.4c5.232-0.136,9.444-4.399,9.444-9.668v-5.158c5.696-2.427,9.722-7.97,9.728-14.517
	V78.045C753.49,71.499,749.465,65.957,743.769,63.528 M703.361,108.075v4.568h-2.414v-2.77h-1.173v2.77h-2.419v-4.568H703.361z
	 M707.537,82.282l-7.178,7.178l-5.571-5.57l-2.86-2.86l-2.713-2.709l11.145-11.147l11.142,11.147L707.537,82.282z M740.247,86.243
	l-12.339,3.47V62.134c0-3.383,2.709-6.037,6.169-6.037c3.459,0,6.17,2.654,6.17,6.037V86.243z M748.798,97.058
	c-0.007,3.836-2.003,7.216-5.029,9.224V68.822c3.026,2.01,5.022,5.387,5.029,9.223V97.058z M697.471,73.544
	c-0.559,0-1.012,0.458-1.012,1.018v7.509c0,0.559,0.453,1.012,1.012,1.012s1.013-0.453,1.013-1.012v-7.509
	C698.483,74.002,698.029,73.544,697.471,73.544 M703.246,83.082c0.554,0,1.006-0.453,1.006-1.012v-7.509
	c0-0.56-0.452-1.018-1.006-1.018c-0.559,0-1.01,0.458-1.01,1.018v7.509C702.236,82.629,702.688,83.082,703.246,83.082
	 M682.104,49.584h6.899c-4.56-2.903-7.601-7.992-7.601-13.799c0-5.855,3.088-10.978,7.713-13.868h-7.012
	c-7.636,0-13.831,6.195-13.831,13.834C668.272,43.391,674.468,49.584,682.104,49.584 M683.885,35.785
	c0.009,6.088,3.934,11.769,9.383,13.799h23.884c-4.565-2.903-7.604-7.992-7.605-13.799c0.002-5.855,3.086-10.976,7.709-13.868
	h-23.132C688.233,23.646,683.894,29.381,683.885,35.785 M712.023,35.785c0.01,6.091,3.937,11.769,9.395,13.799h14.216
	c7.642,0,13.837-6.193,13.837-13.833c0-7.639-6.195-13.834-13.837-13.834H722.27C716.373,23.646,712.035,29.381,712.023,35.785
	 M736.098,24.966c6.022,0.01,10.906,4.889,10.912,10.923c-0.006,6.032-4.89,10.912-10.912,10.921
	c-6.04-0.009-10.923-4.889-10.932-10.921C725.175,29.854,730.058,24.976,736.098,24.966 M736.098,44.271
	c4.623-0.007,8.372-3.755,8.372-8.383c0-4.63-3.749-8.38-8.372-8.38c-4.634,0-8.386,3.75-8.386,8.38
	C727.712,40.517,731.464,44.265,736.098,44.271 M736.098,29.762c3.374,0.005,6.114,2.743,6.118,6.127
	c-0.004,3.381-2.744,6.119-6.118,6.123c-3.386-0.004-6.126-2.742-6.134-6.123C729.972,32.507,732.712,29.767,736.098,29.762
	 M736.094,40.029c2.283,0,4.14-1.855,4.14-4.138c0-2.289-1.856-4.145-4.14-4.145c-2.292,0.004-4.138,1.855-4.141,4.145
	C731.956,38.174,733.802,40.022,736.094,40.029 M736.094,34.004c1.038,0,1.881,0.84,1.881,1.888c0,1.039-0.843,1.881-1.881,1.881
	c-1.048,0-1.884-0.842-1.888-1.881C734.21,34.844,735.046,34.004,736.094,34.004"/>
<path fill="#F79520" d="M422.51,61.417l-6.01-9.072c-3.015-4.154-8.178-5.828-8.178-5.828l-24.293-9.398v11.959l19.865,9.908
	C414.973,64.48,422.51,61.417,422.51,61.417 M399.272,44.923l10.021,3.879c-1.555,0.897-3.744,1.047-5.848,0.229
	C401.332,48.216,399.822,46.63,399.272,44.923 M365.82,48.061h-3.785v6.306h-6.311v3.785h6.311v6.307h3.785v-6.307h6.305v-3.785
	h-6.305V48.061z M428.034,70.29c-8.603-2.302-18.694,5.447-18.694,5.447l-25.311,18.037v14.035c0,0.626-0.037,1.242-0.094,1.856
	l32.883-23.433c0,0,10.619-7.012,11.253-15.893L428.034,70.29z M405.555,92.271c0.746-2.213,2.474-4.51,4.961-6.29
	c2.49-1.781,5.22-2.676,7.555-2.674L405.555,92.271z M363.928,20.051c-9.188,0-16.638,7.449-16.638,16.638v73.431
	c0,8.099,5.788,14.838,13.451,16.327v-8.317h6.372v8.314c7.663-1.486,13.451-8.226,13.451-16.324V36.688
	C380.564,27.5,373.116,20.051,363.928,20.051 M350.393,40.292c-0.116-0.732-0.189-1.479-0.189-2.244
	c0-8.296,6.729-15.019,15.018-15.019c0.769,0,1.513,0.073,2.246,0.188C358.436,24.076,351.252,31.26,350.393,40.292 M374.325,63.792
	l-10.513,4.247l-10.283-4.247V44.763l8.373-1.559l2.025,2.021l2.022-2.019l8.375,1.556V63.792z"/>
</svg>
