<?xml version="1.0" encoding="utf-8"?>
<!-- Generator: Adobe Illustrator 14.0.0, SVG Export Plug-In . SVG Version: 6.00 Build 43363)  -->
<!DOCTYPE svg PUBLIC "-//W3C//DTD SVG 1.1//EN" "http://www.w3.org/Graphics/SVG/1.1/DTD/svg11.dtd">
<svg version="1.1" id="Layer_1" xmlns="http://www.w3.org/2000/svg" xmlns:xlink="http://www.w3.org/1999/xlink" x="0px" y="0px"
	 width="30px" height="40px" viewBox="0 0 30 40" enable-background="new 0 0 30 40" xml:space="preserve">
<g id="calendar_1_" enable-background="new    ">
	<g id="calendar">
		<g>
			<path fill="#FFFFFF" d="M18.035,18.104h-2.276v2.276h2.276V18.104z M18.035,21.896h-2.276v2.275h2.276V21.896z M21.828,21.896
				h-2.276v2.275h2.276V21.896z M18.035,25.689h-2.276v2.275h2.276V25.689z M19.527,13.552c0.826,0,1.494-0.669,1.494-1.494v-1.564
				C21.021,9.668,20.354,9,19.527,9c-0.824,0-1.492,0.668-1.492,1.494v1.564C18.035,12.883,18.703,13.552,19.527,13.552z
				 M10.425,13.552c0.825,0,1.493-0.669,1.493-1.494v-1.564C11.918,9.668,11.25,9,10.425,9C9.6,9,8.931,9.668,8.931,10.494v1.564
				C8.931,12.883,9.6,13.552,10.425,13.552z M21.828,18.104h-2.276v2.276h2.276V18.104z M21.828,25.689h-2.276v2.275h2.276V25.689z
				 M10.448,25.689H8.172v2.275h2.276V25.689z M10.448,21.896H8.172v2.275h2.276V21.896z M23.346,11.276h-1.518v0.759
				c0,1.256-1.02,2.276-2.276,2.276s-2.276-1.02-2.276-2.276v-0.759h-4.551v0.759c0,1.256-1.019,2.276-2.276,2.276
				c-1.257,0-2.276-1.02-2.276-2.276v-0.759H6.655c-0.838,0-1.518,0.679-1.518,1.517v16.689C5.137,30.32,5.817,31,6.655,31h16.689
				c0.838,0,1.518-0.68,1.518-1.518V12.793C24.861,11.955,24.184,11.276,23.346,11.276z M23.346,29.482H6.655V16.586h16.689v12.896
				H23.346z M14.241,25.689h-2.276v2.275h2.276V25.689z M14.241,21.896h-2.276v2.275h2.276V21.896z M14.241,18.104h-2.276v2.276
				h2.276V18.104z M10.448,18.104H8.172v2.276h2.276V18.104z"/>
		</g>
	</g>
</g>
</svg>
