<?xml version="1.0" encoding="utf-8"?>
<!-- Generator: Adobe Illustrator 14.0.0, SVG Export Plug-In . SVG Version: 6.00 Build 43363)  -->
<!DOCTYPE svg PUBLIC "-//W3C//DTD SVG 1.1//EN" "http://www.w3.org/Graphics/SVG/1.1/DTD/svg11.dtd">
<svg version="1.1" xmlns="http://www.w3.org/2000/svg" xmlns:xlink="http://www.w3.org/1999/xlink" x="0px" y="0px" width="150px"
	 height="90px" viewBox="0 0 150 90" enable-background="new 0 0 150 90" xml:space="preserve">
<g id="Background_xA0_Image_1_">
</g>
<g id="arrow_3_" enable-background="new    ">
</g>
<g id="logo_1_" enable-background="new    ">
	<g id="logo">
		<g>
			<path fill-rule="evenodd" clip-rule="evenodd" fill="#EE2D7B" d="M94.711,18.537c2.013,0,3.645-1.633,3.645-3.645
				c0-2.013-1.632-3.646-3.645-3.646c-2.014,0-3.646,1.633-3.646,3.646C91.064,16.904,92.697,18.537,94.711,18.537z M30.092,40.773
				c2.104,1.204,4.482,1.81,7.137,1.81c3.482,0,6.291-0.605,8.429-1.81c2.171-1.208,4.17-2.706,5.999-4.543
				c0.273,1.555,0.923,2.885,1.963,3.973c1.378,1.483,3.223,2.224,5.533,2.224c0.688,0,1.309-0.051,1.862-0.155
				c0.379-0.069,0.947-0.206,1.707-0.413c1.136-0.345,2.308-0.965,3.515-1.861c0.413-0.275,1.067-0.811,1.966-1.604
				c0.462-0.364,1.205-1.041,2.213-2.01c0.115,0.801,0.29,1.58,0.578,2.319c0.482,1.241,1.17,2.154,2.068,2.741
				c0.895,0.655,1.963,0.982,3.206,0.982c1.516,0,3.119-0.467,4.809-1.396c1.596-0.896,3.568-2.42,5.901-4.534
				c-0.002,0.065-0.007,0.128-0.007,0.192c0,1.619,0.361,2.979,1.086,4.085c0.725,1.136,1.638,1.704,2.74,1.704
				c1.897,0,4.784-2.012,8.653-6.014c0.108,0.802,0.28,1.59,0.603,2.345c0.447,1.103,1.102,1.981,1.965,2.636
				c0.758,0.655,1.637,0.982,2.636,0.982c1.448,0,2.896-0.568,4.345-1.706c1.447-1.139,3.016-2.914,4.705-5.325
				c0,4.688,1.258,7.031,3.774,7.031c1.172,0,2.344-0.431,3.516-1.292l0.518-0.414c0.794-0.621,1.413-1.139,1.862-1.551
				c0.481-0.415,1.241-1.103,2.274-2.069c0.312-0.274,0.62-0.553,0.929-0.825v-2.897c-1.067,1.068-1.809,1.792-2.221,2.171
				c-0.139,0.104-0.226,0.191-0.259,0.259c-0.552,0.448-0.966,0.794-1.241,1.035c-0.551,0.518-1.139,0.774-1.759,0.774
				c-0.448,0-0.811-0.188-1.085-0.567c-0.311-0.38-0.466-0.914-0.466-1.604c0-0.552,0.189-1.671,0.567-3.362l1.139-4.29l2.224-7.395
				h-1.397l-5.169,2.844c-0.827-1.93-2.293-2.896-4.396-2.896c-1.276,0-2.654,0.38-4.136,1.138c-1.447,0.759-2.88,1.81-4.292,3.155
				c-1.381,1.342-2.517,2.928-3.413,4.755c-0.647,1.372-1.052,2.769-1.233,4.19c-0.422,0.448-0.928,0.971-1.559,1.602
				c-0.621,0.62-1.053,1.016-1.292,1.188c-0.655,0.552-1.345,0.829-2.067,0.829c-0.381,0-0.69-0.172-0.933-0.517
				c-0.242-0.347-0.362-0.795-0.362-1.346c0-0.896,0.12-1.809,0.362-2.741l1.188-4.239l2.535-7.911h-0.311l-6.411,1.345
				c-0.381,0.966-0.743,1.982-1.086,3.051c-0.518,1.447-1.001,3.016-1.448,4.703c-0.387,1.293-0.664,2.572-0.843,3.843
				c-2.094,1.956-3.573,3.264-4.431,3.915c-0.967,0.76-2.018,1.139-3.154,1.139c-0.898,0-1.604-0.432-2.121-1.294
				c-0.551-0.86-0.826-2.019-0.826-3.466l0.205-3.618c2.172-2.378,4.035-4.738,5.584-7.083c1.45-2.206,2.517-4.396,3.207-6.568
				c0.654-2.067,0.982-4.273,0.982-6.617c0-1.067,0.051-2.105-0.549-3.046c-0.57-0.897-1.562-1.501-2.599-1.701
				c-1.91-0.367-3.404,0.847-4.585,2.196c-0.828,0.949-1.344,2.098-1.885,3.223l-0.361,0.724c-0.036,0.069-0.156,0.362-0.362,0.879
				c-0.172,0.345-0.362,0.759-0.567,1.241c-1.002,2.275-1.863,4.498-2.586,6.67c-0.759,2.31-1.431,4.793-2.018,7.446
				c-0.486,2.259-0.722,4.266-0.803,6.121l-2.918,2.723c-0.654,0.551-1.378,1.014-2.171,1.395c-0.863,0.381-1.689,0.567-2.483,0.567
				c-1.344,0-2.48-0.413-3.413-1.238c-0.862-0.863-1.481-2.088-1.862-3.673c2.311-0.725,4.086-1.377,5.328-1.966
				c1.378-0.619,2.706-1.481,3.981-2.583c1.205-1.104,1.809-2.414,1.809-3.931c0-1.379-0.482-2.447-1.448-3.206
				c-0.999-0.793-2.24-1.189-3.721-1.189c-1.553,0-3.017,0.38-4.396,1.137c-1.414,0.794-2.688,1.828-3.827,3.103
				c-1.103,1.311-1.999,2.827-2.689,4.551c-0.562,1.429-0.879,2.847-0.984,4.252c-1.751,1.97-3.39,3.384-4.909,4.229
				c-1.483,0.86-3.19,1.291-5.119,1.291c-3.034,0-5.566-1.138-7.602-3.412c-1.999-2.204-2.998-5.083-2.998-8.635
				c0-1.966,0.343-4.138,1.033-6.516c0.69-2.379,1.569-4.48,2.638-6.308c1.169-1.931,2.394-3.447,3.669-4.551
				c1.38-1.206,2.672-1.81,3.88-1.81c1.066,0,1.946,0.396,2.636,1.188c0.622,0.828,0.93,1.948,0.93,3.361
				c0,1.311-0.257,2.586-0.774,3.825c-0.621,1.276-1.344,2.311-2.171,3.104c-0.862,0.758-1.706,1.137-2.535,1.137
				c-0.896,0-1.637-0.5-2.222-1.499c-0.726,0.758-1.088,1.602-1.088,2.533c0,1.069,0.431,1.931,1.293,2.586
				c0.897,0.688,1.965,1.032,3.208,1.032c1.687,0,3.22-0.518,4.601-1.55c1.378-1.034,2.516-2.412,3.413-4.137
				c0.861-1.688,1.292-3.551,1.292-5.585c0-1.516-0.328-2.878-0.983-4.085c-0.654-1.205-1.62-2.153-2.895-2.844
				c-1.242-0.654-2.706-0.982-4.396-0.982c-2.24,0-4.428,0.587-6.566,1.759c-2.207,1.173-4.275,2.827-6.204,4.964
				c-2.001,2.24-3.516,4.74-4.551,7.497c-1.136,2.827-1.706,5.775-1.706,8.843c0,2.689,0.587,5.034,1.756,7.032
				C26.387,38.067,28.025,39.668,30.092,40.773z M106.774,29.5c0.655-1.932,1.534-3.602,2.636-5.016
				c1.07-1.378,2.188-2.068,3.363-2.068c0.757,0,1.344,0.277,1.756,0.827c0.379,0.587,0.57,1.311,0.57,2.171
				c0,1.586-0.328,3.31-0.982,5.171c-0.656,1.896-1.535,3.553-2.639,4.964c-1.102,1.414-2.224,2.121-3.359,2.121
				c-0.621,0-1.172-0.292-1.656-0.879c-0.481-0.588-0.724-1.312-0.724-2.172C105.739,33.205,106.084,31.499,106.774,29.5z
				 M80.041,16.366c0.174-0.654,0.415-1.413,0.725-2.275c0.139-0.379,0.379-0.982,0.723-1.81c0.105-0.241,0.293-0.672,0.57-1.293
				c0.276-0.586,0.552-1.086,0.827-1.499c0.31-0.483,0.603-0.724,0.88-0.724c0.275,0,0.518,0.189,0.724,0.568
				c0.173,0.449,0.259,0.948,0.259,1.5c0,1.379-0.312,2.999-0.932,4.86c-0.621,1.931-1.465,3.809-2.534,5.637
				c-1.032,1.826-2.274,3.516-3.722,5.068C78.352,22.399,79.181,19.055,80.041,16.366z M58.015,26.761
				c0.448-1.311,1.085-2.379,1.912-3.208c0.793-0.724,1.483-1.085,2.07-1.085c0.549,0,0.98,0.207,1.292,0.621
				c0.31,0.413,0.466,1.018,0.466,1.809c0,1.69-0.535,3.068-1.604,4.136c-1.103,1.104-2.723,1.965-4.861,2.588
				C57.291,29.829,57.533,28.209,58.015,26.761z M26.164,68.623c0.034-0.345,0.104-0.945,0.208-1.811
				c0.137-0.826,0.257-1.739,0.363-2.739c0.206-1.621,0.446-3.033,0.723-4.24c0.276-1.172,0.621-2.103,1.033-2.792
				c0.449-0.725,1.035-1.431,1.759-2.12c-0.448-0.758-0.896-1.138-1.345-1.138c-0.517,0-1.121,0.154-1.81,0.466
				c-0.069,0.033-0.294,0.138-0.673,0.31l-0.412,0.207c-0.138,0.069-0.311,0.173-0.518,0.311c-0.242,0.138-0.415,0.241-0.518,0.311
				c-0.793,0.551-1.414,1.052-1.862,1.499c-0.86,0.897-1.534,1.861-2.016,2.896c-0.518,0.999-0.949,2.274-1.294,3.826
				c-0.275,1.104-0.619,3.153-1.034,6.151c-0.345,2.689-0.862,5.017-1.55,6.98c-0.657,1.966-1.519,3.501-2.585,4.604
				c-1.036,1.103-2.138,1.653-3.31,1.653c-1.792,0-2.689-1.035-2.689-3.102l0.206-1.655l0.208-1.551c0-0.93-0.311-1.396-0.932-1.396
				c-0.413,0-1.155,0.277-2.224,0.828C5.412,76.396,4.913,76.69,4.396,77c-0.103,0.069-0.328,0.259-0.673,0.569
				c-0.207,0.173-0.413,0.329-0.621,0.463l-0.154,1.554c0,1.759,0.602,3.101,1.81,4.032c1.205,0.931,2.912,1.396,5.119,1.396
				c1.792,0,3.515-0.292,5.169-0.879c1.69-0.585,3.173-1.377,4.448-2.378c1.344-1.035,2.499-2.293,3.464-3.774
				c1.206-1.723,2.033-3.619,2.482-5.689C25.785,70.711,26.026,69.486,26.164,68.623z M146.64,71.831
				c-0.206-0.657-0.638-1.448-1.295-2.381c-0.896-1.311-1.344-2.396-1.344-3.258c0-0.585,0.139-1.326,0.415-2.223
				c0.136-0.241,0.206-0.5,0.206-0.775l-0.257-0.207l-1.241,0.155l-2.536,0.466l-1.859,0.413c-0.723,2.067-1.879,4.24-3.465,6.516
				c-1.287,1.868-2.732,3.641-4.291,5.324l-0.455,0.543c-0.041,0.042-0.074,0.088-0.114,0.135l-0.257,0.308
				c-0.31,0.378-0.76,0.859-1.345,1.447c-0.551,0.551-1.085,1.033-1.603,1.447c-0.793,0.585-1.5,0.88-2.119,0.88
				c-0.965,0-1.449-0.518-1.449-1.553l0.053-0.568l0.052-0.776l0.05-0.621v-0.31c0-1.861-0.982-3.015-2.946-3.465
				c1.861-0.482,3.361-1.052,4.498-1.706c1.171-0.724,1.964-1.429,2.38-2.119c0.448-0.758,0.67-1.534,0.67-2.327
				c0-1.241-0.498-2.258-1.497-3.052c-1.002-0.792-2.277-1.188-3.827-1.188c-0.965,0-2.154,0.207-3.568,0.621
				c2.344-2.793,3.947-5.017,4.81-6.671c0.86-1.62,1.292-3.171,1.292-4.654c0-1.186-0.479-2.727-1.324-3.574
				c-0.828-0.828-2.044-1.125-3.186-1.044c-1.369,0.098-2.611,0.761-3.706,1.554c-2.208,1.601-3.6,3.625-4.864,6.013
				c-0.622,1.171-1.225,2.344-1.812,3.515c-1.103,2.311-1.981,4.603-2.637,6.879c-0.654,2.31-1.171,4.637-1.551,6.98
				c-0.187,1.336-0.309,2.464-0.385,3.438c-1.724,1.906-3.148,2.869-4.27,2.869c-0.896,0-1.792-0.396-2.688-1.191
				c1.724-4.687,2.586-8.546,2.586-11.581c0-0.516-0.018-0.826-0.051-0.931c-0.035-0.068-0.071-0.171-0.105-0.31
				c0-0.137-0.033-0.292-0.104-0.466c-0.136-0.344-0.551-0.672-1.24-0.982c-0.654-0.31-1.689-0.465-3.102-0.465
				c-2.449,0-4.74,0.621-6.878,1.861c-2.068,1.241-3.758,2.947-5.066,5.118c-1.137,1.904-1.738,3.981-1.862,6.212
				c-1.661,1.805-3.045,2.734-4.137,2.734c-0.896,0-1.792-0.396-2.688-1.191c1.724-4.687,2.586-8.546,2.586-11.581
				c0-0.516-0.017-0.826-0.05-0.931c-0.036-0.068-0.072-0.171-0.106-0.31c0-0.137-0.032-0.292-0.103-0.466
				c-0.137-0.344-0.552-0.672-1.242-0.982c-0.653-0.31-1.689-0.465-3.1-0.465c-2.45,0-4.741,0.621-6.878,1.861
				c-2.068,1.241-3.757,2.947-5.067,5.118c-1.134,1.898-1.734,3.969-1.859,6.19L58.119,78.5c-0.655,0.618-1.189,1.019-1.601,1.188
				c-0.414,0.175-0.776,0.259-1.085,0.259c-0.555,0-0.983-0.224-1.295-0.673c-0.345-0.343-0.518-0.896-0.518-1.654l0.157-1.55
				l0.776-2.586l1.395-4.034l2.327-6.463L56,63.091c-1.172,2.067-2.294,3.585-3.362,4.551c-1.136,1.032-2.464,1.655-3.981,1.861
				c0.757-1.931,1.138-3.447,1.138-4.551c0-1.344-0.656-2.017-1.964-2.017c-0.863,0-1.64,0.259-2.328,0.775
				c-0.654,0.518-1.171,1.086-1.551,1.706c-0.345,0.621-0.621,1.362-0.829,2.225l-0.257,1.655c0,1.206,0.724,2.154,2.171,2.843
				c-0.932,1.447-1.831,2.651-3.312,4.101c-1.069,1.046-2.316,2.087-3.419,2.626c0.119-0.228,0.272-0.438,0.371-0.679
				c0.552-1.309,0.827-2.688,0.827-4.136c0-4.137-2.241-6.892-6.722-8.272c2.24-0.586,3.98-1.311,5.221-2.171
				c1.275-0.862,2.138-1.81,2.586-2.845c0.518-0.999,0.777-2.085,0.777-3.258c0-1.826-0.604-3.446-1.812-4.859
				c-1.171-1.38-2.809-2.465-4.911-3.259c-2.034-0.757-4.431-1.137-7.188-1.137c-3.276,0-6.137,0.431-8.583,1.293
				c-2.483,0.861-4.551,1.998-6.205,3.412c-1.656,1.414-2.878,2.896-3.671,4.447c-0.827,1.55-1.242,3.016-1.242,4.396
				c0,0.653,0.156,1.379,0.465,2.171c0.312,0.758,0.707,1.414,1.191,1.965c0.481,0.517,0.93,0.775,1.344,0.775
				c0.413,0,1.309-0.292,2.689-0.88c1.309-0.584,1.963-1.033,1.963-1.344v-0.775c-0.07-0.068-0.12-0.137-0.154-0.206
				c-0.069-0.069-0.225-0.155-0.465-0.259c-1.586-0.654-2.379-1.724-2.379-3.207c0-1.24,0.378-2.446,1.138-3.618
				c0.792-1.207,1.81-2.258,3.051-3.155c1.345-0.896,2.825-1.619,4.446-2.171c1.62-0.552,3.292-0.827,5.016-0.827
				c1.689,0,3.206,0.311,4.55,0.93c1.344,0.69,2.345,1.587,2.999,2.689c0.654,1.173,0.982,2.518,0.982,4.033
				c0,1.379-0.259,2.62-0.774,3.723c-0.517,1.137-1.19,1.966-2.018,2.481c-0.69,0.38-1.484,0.569-2.377,0.569l-0.259,1.862
				c2.205,0.344,3.309,2.051,3.309,5.119c0,0.999-0.088,2.154-0.259,3.463c-0.208,1.174-0.518,2.466-0.932,3.88
				c0,0.034-0.034,0.139-0.104,0.31c-0.275,0.689-0.465,1.138-0.568,1.344c-0.241,0.448-0.5,0.862-0.776,1.242
				c-0.518,0.723-1.068,1.085-1.653,1.085c-0.381,0-0.656-0.155-0.827-0.465c-0.243-0.275-0.365-0.76-0.365-1.45
				c-0.137-1.619-0.55-2.428-1.238-2.428c-0.484,0-1.019,0.447-1.603,1.343c-0.622,0.862-0.933,1.569-0.933,2.12
				c0,0.518,0.225,0.982,0.673,1.397c0.448,0.412,1.052,0.757,1.81,1.033c0.827,0.275,1.62,0.414,2.379,0.414
				c2.497,0,4.749-0.651,6.914-1.868c1.273-0.715,2.546-1.426,3.789-2.192c2.248-1.382,4.215-2.941,5.906-4.974
				c0.509-0.615,0.997-1.248,1.45-1.906c0.202-0.295,0.402-0.594,0.589-0.896c0.07-0.109,0.379-0.812,0.484-0.833
				c1.55-0.273,2.912-0.724,4.084-1.342c-1.345,2.138-2.309,3.947-2.895,5.428c-0.622,1.586-0.931,2.967-0.931,4.137
				c0,1.207,0.343,2.26,1.033,3.155c0.69,0.896,1.57,1.343,2.638,1.343c0.791,0,1.671-0.206,2.637-0.619
				c0.999-0.483,2.052-1.155,3.153-2.018c1.116-0.877,2.416-2.046,3.896-3.486c0.135,0.838,0.335,1.621,0.654,2.298
				c0.551,1.137,1.326,2.051,2.327,2.739c1,0.69,2.135,1.035,3.413,1.035c1.585,0,3.068-0.467,4.446-1.396
				c1.414-0.931,2.705-2.291,3.876-4.084c0.655,0.516,1.275,0.86,1.863,1.033c0.241,0.105,0.533,0.189,0.93,0.258
				c0.346,0.07,0.62,0.104,0.828,0.104c1.385,0,2.822-0.672,4.309-2c0.133,0.846,0.334,1.631,0.656,2.311
				c0.551,1.137,1.325,2.051,2.326,2.739c0.999,0.69,2.136,1.035,3.413,1.035c1.583,0,3.067-0.467,4.446-1.396
				c1.412-0.931,2.704-2.291,3.877-4.084c0.654,0.516,1.275,0.86,1.861,1.033c0.242,0.105,0.535,0.189,0.931,0.258
				c0.345,0.07,0.62,0.104,0.829,0.104c1.347,0,2.742-0.645,4.182-1.897c-0.01,0.403-0.048,0.832-0.048,1.226
				c0,0.654,0.036,1.534,0.105,2.637c0,0.311,0.05,0.775,0.154,1.397l0.052,0.672l5.74-0.984l0.103-3.98l0.31-3.931l0.776-5.065
				c1.481-1.896,2.672-3.173,3.568-3.827c0.896-0.655,1.895-0.982,2.997-0.982c0.519,0,0.984,0.104,1.397,0.31
				c0.413,0.207,0.724,0.484,0.931,0.828c0.205,0.345,0.311,0.76,0.311,1.239c0,0.795-0.381,1.604-1.138,2.433
				c-0.759,0.826-2.208,1.241-4.343,1.241c-0.621,0-1.069,0.101-1.344,0.309c-0.278,0.209-0.415,0.621-0.415,1.242
				c0,0.275,0.085,0.498,0.259,0.671c0.172,0.139,0.482,0.242,0.93,0.311c0.482,0,0.846,0.122,1.086,0.363
				c0.242,0.239,0.361,0.533,0.361,0.879l-0.309,1.965c-0.205,1.241-0.312,2.138-0.312,2.689c0,1.241,0.416,2.273,1.242,3.102
				c0.827,0.862,1.846,1.291,3.051,1.291c0.654,0,1.361-0.139,2.12-0.412c0.725-0.275,1.448-0.654,2.173-1.138
				c0.344-0.206,0.756-0.499,1.24-0.879c0.137-0.104,0.259-0.188,0.362-0.26c0.414-0.344,0.707-0.603,0.879-0.775
				c0.654-0.584,1.189-1.102,1.604-1.552c0.298-0.299,0.663-0.699,1.134-1.187c0.655-0.69,1.396-1.537,2.225-2.536
				c0.587-0.688,1.154-1.395,1.706-2.118c0.757-1.002,1.36-1.809,1.81-2.433c0.654-0.963,1.225-1.825,1.707-2.584l0.932,2.275
				l1.395,2.273c1.104,1.727,1.656,3.104,1.656,4.137c0,0.76-0.209,1.483-0.621,2.172c-0.448,0.724-0.981,1.277-1.604,1.655
				c-0.656,0.448-1.327,0.672-2.018,0.672c-0.515,0-0.963-0.189-1.344-0.568c-0.346-0.346-0.672-1.035-0.984-2.068
				c-0.309-0.999-0.739-1.501-1.291-1.501c-0.379,0-1.033,0.552-1.965,1.656c-0.966,1.105-1.447,1.879-1.447,2.325
				c0,0.416,0.239,0.862,0.724,1.347c0.482,0.448,1.052,0.811,1.707,1.086c0.724,0.273,1.43,0.412,2.12,0.412
				c1.653,0,3.377-0.534,5.169-1.604c1.829-1.136,3.311-2.566,4.449-4.292c1.171-1.722,1.756-3.429,1.756-5.117
				C147.052,73.381,146.916,72.654,146.64,71.831z M72.598,67.9c-0.587,1.102-0.879,2.36-0.879,3.774
				c0,2.377,0.791,4.515,2.377,6.41c-1.378,2.207-2.671,3.31-3.877,3.31c-0.863,0-1.586-0.465-2.171-1.396
				c-0.586-0.896-0.879-2.222-0.879-3.981c0-1.584,0.239-3.307,0.724-5.171c0.447-1.791,1.204-3.29,2.273-4.497
				c0.965-1.173,2.293-1.759,3.982-1.759l1.086,0.104C74.027,65.797,73.147,66.865,72.598,67.9z M95.246,67.9
				c-0.588,1.102-0.88,2.36-0.88,3.774c0,2.377,0.792,4.515,2.378,6.41c-1.378,2.207-2.673,3.31-3.878,3.31
				c-0.862,0-1.587-0.465-2.171-1.396c-0.588-0.896-0.88-2.222-0.88-3.981c0-1.584,0.24-3.307,0.724-5.171
				c0.449-1.791,1.206-3.29,2.275-4.497c0.965-1.173,2.292-1.759,3.981-1.759l1.085,0.104C96.674,65.797,95.795,66.865,95.246,67.9z
				 M116.081,64.745l-1.653,1.862c1.103-4.034,2.102-7.102,2.998-9.204c0.933-2.173,1.81-3.705,2.639-4.603
				c0.791-0.896,1.48-1.345,2.068-1.345c0.445,0,0.79,0.121,1.033,0.362c0.207,0.242,0.311,0.639,0.311,1.189
				c0,0.896-0.311,1.947-0.932,3.154c-0.724,1.275-1.568,2.567-2.533,3.877C118.908,61.453,117.598,63.022,116.081,64.745z"/>
		</g>
	</g>
</g>
<g id="arrow_2_" enable-background="new    ">
</g>
</svg>
