<?xml version="1.0" encoding="utf-8"?>
<!-- Generator: Adobe Illustrator 14.0.0, SVG Export Plug-In . SVG Version: 6.00 Build 43363)  -->
<!DOCTYPE svg PUBLIC "-//W3C//DTD SVG 1.1//EN" "http://www.w3.org/Graphics/SVG/1.1/DTD/svg11.dtd">
<svg version="1.1" id="Layer_1" xmlns="http://www.w3.org/2000/svg" xmlns:xlink="http://www.w3.org/1999/xlink" x="0px" y="0px"
	 width="80px" height="60px" viewBox="0 0 80 60" enable-background="new 0 0 80 60" xml:space="preserve">
<circle fill="#FFFFFF" cx="22.423" cy="32.999" r="14.983"/>
<circle fill="#FFFFFF" cx="56.531" cy="32.999" r="14.983"/>
<path fill="#FFDF9E" d="M22.934,16.083c4.853-2.113,10.877-3.252,16.938-3.252c6.067,0,11.567,1.143,16.425,3.265
	c-9.119,0.279-16.427,7.754-16.429,16.94C39.865,23.681,32.287,16.096,22.934,16.083"/>
<path fill="#FFDF9E" d="M40.107,33.035h-0.48c-0.002-9.203-7.491-16.699-16.693-16.712l-1.148-0.001l1.053-0.458
	c4.847-2.111,10.896-3.273,17.033-3.273c5.972,0,11.53,1.105,16.521,3.285l0.978,0.427l-1.066,0.033
	C47.224,16.613,40.109,23.949,40.107,33.035L40.107,33.035z M24.049,15.88c7.983,0.525,14.5,6.528,15.815,14.271
	c1.271-7.639,7.515-13.531,15.389-14.234c-4.684-1.89-9.853-2.847-15.382-2.847C34.222,13.07,28.652,14.064,24.049,15.88
	L24.049,15.88z"/>
<path fill="#EC2227" d="M22.423,30.231c-1.528,0-2.767,1.238-2.767,2.767c0,1.53,1.238,2.767,2.767,2.767s2.767-1.237,2.767-2.767
	C25.19,31.47,23.952,30.231,22.423,30.231"/>
<path fill="#08A64F" d="M56.532,30.193c-1.528,0-2.768,1.238-2.768,2.768s1.239,2.767,2.768,2.767s2.766-1.237,2.766-2.767
	S58.061,30.193,56.532,30.193"/>
<path fill="#010101" d="M22.845,24.766c-4.546,0-8.231,3.686-8.231,8.231c0,4.549,3.685,8.231,8.231,8.231
	c4.547,0,8.232-3.683,8.232-8.231C31.077,28.452,27.392,24.766,22.845,24.766 M22.845,38.702c-3.15,0-5.703-2.554-5.703-5.704
	s2.553-5.704,5.703-5.704c3.151,0,5.704,2.554,5.704,5.704S25.996,38.702,22.845,38.702 M74.064,16.319H62.73
	C56.95,12.43,49.057,10,40.004,10c-9.056,0-17.491,2.428-23.271,6.319H5.936c1.761,2.06,3.064,4.847,3.388,6.761
	c-2.036,2.796-3.241,6.236-3.241,9.958C6.083,42.406,13.676,50,23.042,50c5.314,0,10.056-2.449,13.165-6.274
	c1.269,1.481,3.368,4.462,3.793,5.329c0,0,2.436-3.637,3.804-5.313C46.913,47.559,51.651,50,56.96,50
	c9.364,0,16.959-7.594,16.959-16.961c0-3.721-1.208-7.157-3.242-9.953C70.999,21.172,72.303,18.382,74.064,16.319 M23.042,46.692
	c-7.54,0-13.653-6.112-13.653-13.653c0-7.538,6.113-13.651,13.653-13.651s13.653,6.113,13.653,13.651
	C36.695,40.58,30.583,46.692,23.042,46.692 M23.068,16.083c4.853-2.113,10.877-3.253,16.937-3.253
	c6.069,0,11.568,1.144,16.426,3.265c-9.12,0.279-16.428,7.754-16.43,16.94C39.999,23.681,32.421,16.096,23.068,16.083 M56.96,46.692
	c-7.541,0-13.654-6.112-13.654-13.653c0-7.538,6.113-13.651,13.654-13.651c7.539,0,13.65,6.113,13.65,13.651
	C70.61,40.58,64.499,46.692,56.96,46.692 M56.954,24.729c-4.547,0-8.23,3.685-8.23,8.232c0,4.545,3.684,8.231,8.23,8.231
	c4.545,0,8.23-3.686,8.23-8.231C65.185,28.413,61.499,24.729,56.954,24.729 M56.954,38.664c-3.149,0-5.704-2.554-5.704-5.704
	c0-3.152,2.555-5.706,5.704-5.706s5.703,2.554,5.703,5.706C62.657,36.11,60.104,38.664,56.954,38.664"/>
</svg>
