<?xml version="1.0" encoding="utf-8"?>
<!-- Generator: Adobe Illustrator 14.0.0, SVG Export Plug-In . SVG Version: 6.00 Build 43363)  -->
<!DOCTYPE svg PUBLIC "-//W3C//DTD SVG 1.1//EN" "http://www.w3.org/Graphics/SVG/1.1/DTD/svg11.dtd">
<svg version="1.1" xmlns="http://www.w3.org/2000/svg" xmlns:xlink="http://www.w3.org/1999/xlink" x="0px" y="0px" width="60px"
	 height="60px" viewBox="0 0 60 60" enable-background="new 0 0 60 60" xml:space="preserve">
<g id="Background_xA0_Image_1_">
</g>
<g id="Shape_19_1_" enable-background="new    ">
	<g id="Shape_19">
		<g>
			<path fill-rule="evenodd" clip-rule="evenodd" fill="#FFFFFF" d="M51.661,15.901l-0.05-0.028
				c-0.632,0.726-2.226,1.54-4.779,2.417l-0.142-0.246c-0.006-0.011-0.006-0.011,0.014-0.008c2.356-1.721,3.39-3.349,3.126-4.901
				c-1.375,1.665-3.092,2.672-5.155,3.051c-1.612-2.074-3.909-3.483-6.911-4.229c-0.035,0.002-0.08-0.012-0.123-0.022
				c-2.467-0.511-4.781-0.1-6.934,1.254l-0.153-0.11c0.006-0.021,0.02-0.029,0.033-0.037c1.744-1.588,2.667-2.719,2.738-3.409
				c-0.104-0.465-0.378-0.595-0.845-0.398c-0.935,0.702-1.741,1.438-2.388,2.228c0.678-1.24,0.825-1.924,0.462-2.022
				c-1.017,0.624-1.839,1.77-2.436,3.437c0.026-0.959-0.03-1.433-0.177-1.438c-0.345,0.688-0.607,1.365-0.785,2.025
				c-0.343,1.447-0.546,2.725-0.634,3.826l0.011,0.084c-0.152,2.965,0.125,5.701,0.818,8.253l-0.122,0.288l-0.017,0.063
				c-1.423-0.519-2.913-0.779-4.514-0.764c-1.935-0.058-4.091,0.064-6.489,0.364c-2.7,0.183-5.326,0.558-7.869,1.139
				c1.312,2.304,3.55,3.453,6.668,3.429l0.023,0.04c-0.838,0.463-1.568,1.049-2.207,1.729c1.379,2.044,3.815,2.593,7.299,1.667
				l0.009,0.048c-1.22,0.617-1.97,1.575-2.26,2.828c2.058,1.275,4.318,1.145,6.819-0.389c-0.362,0.535-0.6,1.031-0.684,1.481
				c-0.195,0.728-0.03,1.358,0.479,1.896c1.084,0.623,2.312,0.492,3.713-0.405l0.136,0.048l-0.018,0.063
				c-1.074,3.879-3.439,6.711-7.09,8.512l-0.038,0.059c-2.154,1.223-5.012,1.571-8.625,1.051c4.472,1.978,9.211,2.536,14.207,1.719
				c5.552-1.232,10.313-3.837,14.268-7.805l0.081-0.047c3.828-3.876,6.202-8.668,7.137-14.385c0.292-2.883,0.095-5.355-0.613-7.43
				C50.066,19.534,51.401,17.896,51.661,15.901z"/>
		</g>
	</g>
</g>
<g id="Shape_18_1_" enable-background="new    ">
</g>
</svg>
